<svg width="35" height="35" viewBox="0 0 35 35" fill="none" xmlns="http://www.w3.org/2000/svg">
<path d="M12.332 7.50041C10.3281 7.47697 8.08984 8.46135 6.60156 10.5473C6.37891 10.8285 6.17969 11.1449 5.96875 11.6137C8.51172 12.0707 10.5742 14.3207 10.5742 16.8285C10.5742 17.5434 10.4336 18.1996 10.1875 18.7856C11.7344 18.5629 12.6953 18.2113 13.5742 17.7192C15.5078 16.6059 17.0312 14.8012 17.0312 12.2113C17.0312 9.22306 14.9219 7.52385 12.332 7.50041ZM12.7891 12.5278C12.5547 12.727 12.1914 12.7035 11.9922 12.4574C11.793 12.2113 11.8281 11.8598 12.0742 11.6606L13.7969 10.2074C14.0312 10.0082 14.3828 10.0434 14.5703 10.2895C14.7812 10.5238 14.7695 10.8754 14.5234 11.0746L12.7891 12.5278ZM10.6445 28.2309H11.5703C12.2852 28.2309 12.7656 27.8559 12.7656 27.1293V19.4067C11.7695 19.7699 10.6562 19.9926 9.4375 20.0746V27.1293C9.4375 27.8559 9.91797 28.2309 10.6445 28.2309ZM23.3242 7.50041C20.7461 7.52385 18.6367 9.22306 18.6367 12.2113C18.6367 14.8012 20.1602 16.6059 22.082 17.7192C22.9727 18.2113 23.9336 18.5629 25.4805 18.7856C25.2227 18.1996 25.0938 17.5434 25.0938 16.8285C25.0938 14.3207 27.1445 12.0707 29.6875 11.6137C29.4883 11.1449 29.2773 10.8285 29.0664 10.5473C27.5664 8.46135 25.3398 7.47697 23.3242 7.50041ZM22.8789 12.5278L21.1445 11.0746C20.8984 10.8754 20.8867 10.5238 21.0859 10.2895C21.2734 10.0434 21.6367 10.0082 21.8711 10.2074L23.5938 11.6606C23.8398 11.8598 23.8633 12.2113 23.6641 12.4574C23.4648 12.7035 23.1133 12.727 22.8789 12.5278ZM25.0117 28.2309C25.75 28.2309 26.2188 27.8559 26.2188 27.1293V20.0746C25 19.9926 23.8984 19.7699 22.9023 19.4067V27.1293C22.9023 27.8559 23.3711 28.2309 24.0977 28.2309H25.0117Z" fill="#E6EDED"/>
<path opacity="0.5" d="M6.01562 20.227C7.83203 20.227 9.44922 19.102 9.44922 16.8285C9.44922 14.8011 7.53906 12.6566 5.05469 12.6566C2.95703 12.6566 1.75 14.3207 1.75 16.0199C1.75 18.5629 3.91797 20.227 6.01562 20.227ZM5.42969 18.4457C5.10156 18.7387 4.53906 18.4457 3.84766 17.6137C3.16797 16.7816 2.99219 16.2074 3.32031 15.9261C3.66016 15.6215 4.21094 15.9027 4.91406 16.7465C5.58203 17.602 5.75781 18.1645 5.42969 18.4457ZM29.6523 20.227C31.75 20.227 33.918 18.5629 33.918 16.0199C33.918 14.3207 32.7109 12.6566 30.6133 12.6566C28.1289 12.6566 26.2188 14.8011 26.2188 16.8285C26.2188 19.102 27.8359 20.227 29.6523 20.227ZM30.2383 18.4457C29.9102 18.1645 30.0859 17.602 30.7539 16.7465C31.457 15.9027 32.0078 15.6215 32.3477 15.9261C32.6758 16.2074 32.5 16.7816 31.8203 17.6137C31.1289 18.4457 30.5664 18.7387 30.2383 18.4457Z" fill="#E6EDED"/>
</svg>
