<svg width="35" height="35" viewBox="0 0 35 35" fill="none" xmlns="http://www.w3.org/2000/svg">
<path d="M11.3516 27.9375H23.6797C28.4727 27.9375 30.7812 25.6406 30.7812 20.8711V15.3047H23.5273C23.3281 15.832 22.8359 16.1719 22.2148 16.1719H12.8281C12.2188 16.1719 11.7031 15.832 11.5156 15.3047H4.25V20.8711C4.25 25.6406 6.57031 27.9375 11.3516 27.9375ZM17.5156 20.6367C16.9297 20.6484 16.4492 20.1562 16.4492 19.582C16.4492 18.9961 16.9297 18.5039 17.5156 18.5039C18.1016 18.5039 18.5938 18.9961 18.5938 19.582C18.5938 20.1328 18.1016 20.625 17.5156 20.6367ZM4.25 14.2383H11.4922C11.6797 13.6992 12.1953 13.3711 12.8047 13.3711H22.2031C22.8125 13.3711 23.3164 13.6992 23.5039 14.2383H30.7461V13.8633C30.7461 9.58594 28.2148 7.5 23.6445 7.5H11.3516C6.79297 7.5 4.25 9.58594 4.25 13.8633V14.2383Z" fill="#E6EDED"/>
</svg>
