<svg viewBox="0 0 140 140" xmlns="http://www.w3.org/2000/svg">
<path d="M89.6745 11.0278C89.1461 13.0483 89.5413 14.304 91.5211 15.1028C95.3739 16.6573 95.5594 16.7411 97.2924 14.5878C98.4148 13.193 99.5894 11.8273 100.576 10.3393C101.73 8.59826 102.917 8.08117 104.831 9.31978C107.175 10.8366 107.263 10.8041 106.12 13.5847C105.44 15.2394 104.8 16.9143 104.037 18.5309C103.25 20.1995 103.327 21.5453 105.053 22.5536C105.543 22.8394 105.973 23.2354 106.403 23.6125C107.803 24.8412 109.144 24.8663 110.614 23.6466C112.266 22.2765 114.064 21.0827 115.726 19.7238C117.305 18.4325 118.277 19.379 119.37 20.4502C120.474 21.5317 121.391 22.512 120.113 24.0848C118.669 25.8629 117.331 27.7274 115.903 29.5195C114.957 30.7067 114.875 31.8071 115.926 32.9731C116.499 33.6091 117.012 34.3048 117.507 35.006C118.401 36.2746 119.514 36.4373 120.888 35.8515C122.928 34.982 125.018 34.2296 127.047 33.3349C129.112 32.4238 129.803 33.8008 130.68 35.2149C131.531 36.5883 131.692 37.6388 130.222 38.6829C128.413 39.9675 126.707 41.3971 124.914 42.705C123.606 43.6592 123.26 44.7726 123.997 46.2376C124.318 46.8748 124.576 47.5484 124.807 48.2246C125.393 49.9388 126.538 50.4967 128.31 50.1999C130.426 49.8455 132.576 49.7016 134.697 49.3781C137.171 49.0009 137.166 50.9031 137.688 52.4232C138.235 54.0131 137.584 54.8436 136.157 55.3938C134.288 56.1143 132.468 56.9628 130.586 57.6449C128.787 58.297 127.797 59.2976 128.36 61.3504C128.566 62.1016 128.608 62.9012 128.691 63.6822C128.836 65.04 129.622 65.6762 130.934 65.8409C133.134 66.1169 135.322 66.5085 137.528 66.7278C139.619 66.9357 139.983 68.1815 140 69.9988C140.016 71.7896 139.544 72.875 137.594 73.0629C135.386 73.2755 133.196 73.6565 130.991 73.8931C129.545 74.0482 128.799 74.7738 128.683 76.2147C128.613 77.0697 128.516 77.9257 128.369 78.7703C128.09 80.3685 128.722 81.3423 130.229 81.9219C132.231 82.6919 134.168 83.6314 136.174 84.3899C138.07 85.1067 138.034 86.3391 137.587 88.0167C137.145 89.6761 136.653 90.8125 134.594 90.4228C132.559 90.0375 130.475 89.9115 128.43 89.5657C126.697 89.2725 125.484 89.6923 124.936 91.4964C124.709 92.2462 124.402 92.9803 124.054 93.6832C123.348 95.1069 123.827 96.1385 125 97.0293C126.767 98.3722 128.473 99.7986 130.273 101.096C131.841 102.227 131.526 103.382 130.688 104.79C129.87 106.164 129.204 107.447 127.233 106.544C125.218 105.622 123.131 104.856 121.103 103.96C119.644 103.315 118.491 103.498 117.582 104.888C117.113 105.606 116.569 106.276 116.028 106.943C115.113 108.071 115.228 109.157 116.073 110.262C117.421 112.026 118.689 113.855 120.107 115.56C121.42 117.139 120.761 118.204 119.541 119.409C118.364 120.57 117.37 121.447 115.745 120.049C114.064 118.604 112.226 117.343 110.488 115.963C109.305 115.023 108.187 114.942 107.018 115.968C106.535 116.391 106.009 116.773 105.469 117.122C103.825 118.187 103.441 119.529 104.278 121.343C105.147 123.226 105.785 125.214 106.651 127.097C107.54 129.031 106.384 129.789 104.978 130.614C103.621 131.411 102.473 131.951 101.316 130.286C100.05 128.465 98.6043 126.77 97.2987 124.975C96.3596 123.684 95.2817 123.251 93.7962 124.008C93.0336 124.397 92.2355 124.727 91.4294 125.017C90.0537 125.511 89.5888 126.487 89.7697 127.875C90.0565 130.076 90.2485 132.292 90.6244 134.477C91.0216 136.786 89.5497 137.154 87.8507 137.689C86.0755 138.248 85.1696 137.746 84.5536 136.087C83.8071 134.075 82.8978 132.125 82.1138 130.127C81.5312 128.642 80.5921 127.931 78.956 128.345C78.4742 128.467 77.965 128.526 77.4674 128.532C75.2008 128.556 74.126 129.703 73.9473 131.947C73.7884 133.942 73.3883 135.917 73.1794 137.91C72.9335 140.255 71.2202 139.909 69.6547 139.992C67.992 140.08 67.1233 139.444 66.967 137.717C66.7799 135.651 66.3328 133.606 66.1972 131.539C66.0684 129.575 65.0966 128.714 63.2301 128.618C62.5161 128.582 61.7972 128.516 61.0956 128.384C59.6642 128.115 58.7647 128.687 58.2232 130.001C57.4057 131.986 56.428 133.914 55.7431 135.942C54.976 138.213 53.5667 138.106 51.6785 137.586C49.8741 137.09 49.2045 136.247 49.6011 134.349C50.0245 132.323 50.1344 130.233 50.4578 128.183C50.69 126.71 50.3274 125.654 48.8335 125.122C47.9591 124.811 47.1002 124.45 46.2514 124.073C44.9331 123.488 43.9091 123.832 43.0536 124.952C41.7928 126.602 40.4079 128.166 39.2481 129.883C38.0826 131.609 36.9305 131.802 35.1299 130.73C33.4441 129.726 32.639 128.801 33.6588 126.822C34.5737 125.047 35.1835 123.117 36.0137 121.294C36.7073 119.771 36.6117 118.543 35.0928 117.6C34.6707 117.338 34.2892 116.998 33.926 116.655C32.3057 115.125 30.7576 115.088 29.0393 116.607C27.5414 117.932 25.8458 119.03 24.2795 120.281C22.7335 121.516 21.7113 120.671 20.6073 119.565C19.5204 118.476 18.5783 117.506 19.877 115.933C21.1984 114.332 22.3601 112.597 23.7083 111.021C24.974 109.541 25.2488 108.182 23.7879 106.694C23.34 106.237 22.9635 105.701 22.6079 105.166C21.6421 103.712 20.4171 103.553 18.8855 104.23C16.9235 105.098 14.8798 105.786 12.9383 106.694C11.1465 107.532 10.3294 106.624 9.5386 105.223C8.76822 103.858 7.90102 102.642 9.7201 101.37C11.5378 100.099 13.2329 98.6546 15.0261 97.347C16.3193 96.404 16.7321 95.3118 15.9986 93.8282C15.6187 93.06 15.2944 92.2604 15.0001 91.4548C14.538 90.1898 13.6651 89.6658 12.3405 89.83C10.1396 90.103 7.92335 90.2826 5.7393 90.6533C3.88055 90.9688 2.95973 90.3082 2.49984 88.4896C2.06009 86.7506 1.68466 85.3164 3.96562 84.5676C5.99892 83.9001 7.92997 82.9265 9.92749 82.1424C11.3316 81.5913 11.9797 80.6919 11.6679 79.1508C11.5267 78.4526 11.4944 77.7293 11.4507 77.0151C11.3352 75.1247 10.3004 74.2342 8.45662 74.0374C6.3226 73.8096 4.20609 73.4178 2.07213 73.1893C-0.11196 72.9555 0.0505485 71.4007 0.00417803 69.8603C-0.0424357 68.3119 0.278258 67.2086 2.12411 67.0453C4.18928 66.8626 6.23254 66.4067 8.29866 66.2674C10.2966 66.1327 11.3242 65.2394 11.4095 63.2356C11.443 62.4498 11.5109 61.6615 11.6286 60.8843C11.8357 59.5159 11.1836 58.7158 9.99446 58.2167C7.88342 57.3307 5.79917 56.3751 3.66082 55.5614C1.47884 54.7311 2.14536 53.2175 2.49173 51.6513C2.84267 50.0645 3.56459 49.2546 5.31231 49.5394C7.57159 49.9076 9.85227 50.1426 12.1203 50.4596C13.5291 50.6565 14.471 50.153 14.9448 48.7769C15.2239 47.9664 15.5297 47.1582 15.9069 46.39C16.5955 44.9876 16.2147 43.9333 15.0213 43.0272C13.2533 41.6847 11.568 40.2274 9.75153 38.9563C7.8806 37.6472 8.67316 36.3743 9.47169 34.9021C10.2777 33.4161 11.1624 32.7118 12.8877 33.544C14.6248 34.3819 16.4965 34.9452 18.2165 35.8128C20.1263 36.7763 21.6167 36.6917 22.7332 34.6945C22.9399 34.3248 23.2468 34.0063 23.5325 33.6865C24.8268 32.2374 24.8898 30.8451 23.5854 29.3038C22.2458 27.7208 21.104 25.9716 19.794 24.3617C18.5715 22.8592 19.2169 21.8223 20.369 20.6774C21.5259 19.5278 22.5375 18.5722 24.1757 19.944C25.7118 21.2304 27.3984 22.3384 28.9172 23.6433C30.4454 24.9563 31.8622 25.3222 33.3984 23.7248C33.6917 23.4199 34.0712 23.1911 34.4311 22.9585C36.1456 21.8505 36.5566 20.4531 35.6551 18.5565C34.7963 16.7499 34.2002 14.819 33.3532 13.006C32.4711 11.1181 33.4901 10.3049 34.933 9.44645C36.3981 8.57477 37.5895 8.15059 38.7666 9.87179C39.9375 11.5839 41.3137 13.1543 42.5138 14.848C43.5346 16.2887 44.6994 16.8201 46.3552 15.9411C47.0469 15.5738 47.7919 15.3003 48.528 15.0251C49.8715 14.5229 50.3925 13.5683 50.2092 12.1684C49.9212 9.96785 49.7352 7.75027 49.3521 5.56696C48.9477 3.26263 50.3855 2.82659 52.109 2.34593C53.8056 1.87276 54.8282 2.22287 55.4329 3.95406C56.0692 5.7757 56.9741 7.50464 57.5897 9.33207C58.2545 11.3059 59.4487 12.0978 61.4897 11.6274C62.184 11.4674 62.8955 11.3542 63.6053 11.2962C64.9779 11.1839 65.6275 10.4237 65.8009 9.10376C66.0899 6.90397 66.5272 4.71873 66.7115 2.51144C66.9159 0.0637027 68.4733 0.0283765 70.3458 0.000643483C72.2278 -0.0272271 72.8685 0.850669 73.0276 2.55331C73.2206 4.61886 73.613 6.66542 73.8189 8.7302C73.9782 10.3276 74.6614 11.2507 76.3513 11.3105C76.9891 11.333 77.6239 11.4947 78.2561 11.6142C80.1542 11.9732 81.3877 11.3328 82.0518 9.42152C82.7082 7.53255 83.6568 5.74617 84.334 3.86323C85.1381 1.62744 86.6338 2.09254 88.3506 2.4901C90.1156 2.89882 90.7493 3.72748 90.397 5.52533C90.0537 7.27767 89.9226 9.07162 89.6745 11.0278ZM104.538 104.021C109.862 98.4472 113.64 91.9334 116.395 84.7657C117.331 82.3286 116.758 80.23 114.881 78.8017C113.551 77.7901 111.684 77.0022 110.039 76.9677C100.591 76.7691 91.1344 76.9698 81.6879 76.7358C76.7516 76.6136 73.5558 78.8747 71.212 82.8647C69.0366 86.568 66.9027 90.2958 64.7297 94.0006C62.0858 98.5082 59.3819 102.981 56.7754 107.51C54.4552 111.542 55.6161 114.737 59.9394 116.405C60.6655 116.685 61.4469 116.889 62.2193 116.969C64.5671 117.212 66.9198 117.484 69.2763 117.555C82.7902 117.967 94.6658 114.01 104.538 104.021ZM25.582 51.2804C23.3214 56.1999 21.8175 61.3279 21.4155 66.744C20.3843 80.6346 25.4692 92.3773 34.1283 102.86C35.3722 104.366 37.0358 104.643 38.7948 104.363C41.0486 104.005 42.6794 102.701 43.8262 100.716C48.5539 92.5346 53.1972 84.3009 58.1025 76.2268C60.5741 72.1586 60.2149 68.3554 58.087 64.4629C56.4047 61.3857 54.5936 58.3793 52.8608 55.3295C49.7841 49.9145 46.7832 44.4554 43.6354 39.0823C41.5047 35.4454 38.309 34.8716 34.9586 37.4183C34.0042 38.1438 33.0696 39.0147 32.4301 40.0139C30.1191 43.6243 27.9378 47.3177 25.582 51.2804ZM114.741 52.718C111.269 44.5002 106.712 36.9994 99.6903 31.3314C87.6539 21.6153 73.7946 19.568 58.9613 22.1562C58.0774 22.3104 57.1519 23.0425 56.5348 23.7559C54.6902 25.8883 54.6181 28.7833 56.2097 31.5686C60.7901 39.5845 65.5526 47.502 69.9179 55.6332C72.4636 60.3749 76.2347 62.0743 81.3163 62.0387C87.7586 61.9936 94.2021 62.1412 100.645 62.2014C103.58 62.2288 106.517 62.3111 109.451 62.2524C114.036 62.1608 116.243 59.3865 115.392 54.8916C115.273 54.2619 115.054 53.6511 114.741 52.718Z"/>
</svg>
