<svg width="35" height="35" viewBox="0 0 35 35" fill="none" xmlns="http://www.w3.org/2000/svg">
<path opacity="0.25" d="M13.1836 28.4219C12.1875 28.4219 11.6367 27.8945 11.6367 26.957V8.85156C11.6367 7.91406 12.1875 7.38672 13.1836 7.38672H21.3867C22.3711 7.38672 22.9219 7.91406 22.9219 8.85156V26.957C22.9219 27.8945 22.3711 28.4219 21.3867 28.4219H13.1836Z" fill="#E6EDED"/>
<path d="M12.9375 30.3086H21.6211C23.5312 30.3086 24.8086 29.0898 24.8086 27.2617V8.54688C24.8086 6.71875 23.5312 5.5 21.6211 5.5H12.9375C11.0273 5.5 9.75 6.71875 9.75 8.54688V27.2617C9.75 29.0898 11.0273 30.3086 12.9375 30.3086ZM13.1836 28.4219C12.1875 28.4219 11.6367 27.8945 11.6367 26.957V8.85156C11.6367 7.91406 12.1875 7.38672 13.1836 7.38672H21.3867C22.3711 7.38672 22.9219 7.91406 22.9219 8.85156V26.957C22.9219 27.8945 22.3711 28.4219 21.3867 28.4219H13.1836ZM14.8008 27.5664H19.7812C20.0977 27.5664 20.3203 27.3438 20.3203 27.0156C20.3203 26.6875 20.0977 26.4766 19.7812 26.4766H14.8008C14.4844 26.4766 14.25 26.6875 14.25 27.0156C14.25 27.3438 14.4844 27.5664 14.8008 27.5664ZM15.8672 9.96484H18.7031C19.1602 9.96484 19.5234 9.60156 19.5234 9.13281C19.5234 8.67578 19.1602 8.3125 18.7031 8.3125H15.8672C15.3984 8.3125 15.0352 8.67578 15.0352 9.13281C15.0352 9.60156 15.3984 9.96484 15.8672 9.96484Z" fill="#E6EDED"/>
</svg>
