<svg width="14" height="13" viewBox="0 0 14 13" fill="none" xmlns="http://www.w3.org/2000/svg">
<path fill-rule="evenodd" clip-rule="evenodd" d="M3 0C1.34315 0 0 1.34315 0 3C0 4.65685 1.34315 6 3 6H11C12.6569 6 14 4.65685 14 3C14 1.34315 12.6569 0 11 0H3ZM3 1C1.89543 1 1 1.89543 1 3C1 4.10457 1.89543 5 3 5H11C12.1046 5 13 4.10457 13 3C13 1.89543 12.1046 1 11 1H3ZM3 7C1.34315 7 0 8.34315 0 10C0 11.6569 1.34315 13 3 13H11C12.6569 13 14 11.6569 14 10C14 8.34315 12.6569 7 11 7H3ZM11 12C12.1046 12 13 11.1046 13 10C13 8.89543 12.1046 8 11 8C9.89543 8 9 8.89543 9 10C9 11.1046 9.89543 12 11 12ZM3 4.5C3.82843 4.5 4.5 3.82843 4.5 3C4.5 2.17157 3.82843 1.5 3 1.5C2.17157 1.5 1.5 2.17157 1.5 3C1.5 3.82843 2.17157 4.5 3 4.5Z" fill="black" fill-opacity="0.9"/>
</svg>
