<svg width="35" height="35" viewBox="0 0 35 35" fill="none" xmlns="http://www.w3.org/2000/svg">
<path opacity="0.25" d="M10.9609 21.5391V12.5625C10.9609 10.8164 11.9805 9.76172 13.6914 9.76172H20.6289C22.3398 9.76172 23.3594 10.8164 23.3594 12.5625V21.5391C23.3594 23.2734 22.3398 24.3281 20.6289 24.3281H13.6914C11.9805 24.3281 10.9609 23.2734 10.9609 21.5391Z" fill="#E6EDED"/>
<path d="M9.25 21.7852C9.25 23.6016 9.96484 24.9375 11.2891 25.6641C11.9336 26.0039 12.3086 26.4375 12.543 27.2227L12.918 28.4766C13.1406 29.2266 13.668 29.5898 14.4531 29.5898H19.8672C20.6758 29.5898 21.168 29.2383 21.3906 28.4766L21.7773 27.2227C22.0117 26.4375 22.3867 26.0039 23.0312 25.6641C24.3555 24.9375 25.0703 23.6016 25.0703 21.7852V12.3047C25.0703 10.4883 24.3555 9.16406 23.0312 8.42578C22.3867 8.08594 22.0117 7.65234 21.7773 6.87891L21.3906 5.61328C21.1914 4.875 20.6641 4.5 19.8672 4.5H14.4531C13.668 4.5 13.1406 4.86328 12.918 5.61328L12.543 6.87891C12.3203 7.64062 11.9453 8.09766 11.2891 8.42578C9.97656 9.12891 9.25 10.4648 9.25 12.3047V21.7852ZM10.9609 21.5391V12.5625C10.9609 10.8164 11.9805 9.76172 13.6914 9.76172H20.6289C22.3398 9.76172 23.3594 10.8164 23.3594 12.5625V21.5391C23.3594 23.2734 22.3398 24.3281 20.6289 24.3281H13.6914C11.9805 24.3281 10.9609 23.2734 10.9609 21.5391ZM24.8125 16.2188H25.2344C25.8438 16.2188 26.2422 15.8086 26.2422 15.1406V13.5586C26.2422 12.8906 25.8438 12.4805 25.2344 12.4805H24.8125V16.2188Z" fill="#E6EDED"/>
</svg>
